<svg xmlns="http://www.w3.org/2000/svg" viewBox="0 0 512 512" role="img" aria-labelledby="title">
  <title id="title">Aussie Hoops Home Court app icon</title>
  <rect width="512" height="512" rx="96" fill="#176bb3"/>
  <circle cx="256" cy="256" r="168" fill="#f26a21" stroke="#162033" stroke-width="18"/>
  <path d="M256 88c-36 44-56 101-56 168s20 124 56 168M256 88c36 44 56 101 56 168s-20 124-56 168" fill="none" stroke="#162033" stroke-width="16" stroke-linecap="round"/>
  <path d="M92 256h328M256 92v328" fill="none" stroke="#162033" stroke-width="16" stroke-linecap="round"/>
  <path d="M122 174c54 31 104 47 134 47s80-16 134-47M122 338c54-31 104-47 134-47s80 16 134 47" fill="none" stroke="#162033" stroke-width="13" stroke-linecap="round"/>
  <path d="M158 408h196" fill="none" stroke="#fffdf8" stroke-width="18" stroke-linecap="round"/>
</svg>
